<svg width="291" height="429" viewBox="0 0 291 429" fill="none" xmlns="http://www.w3.org/2000/svg">
<path d="M87.0438 418.04L87.043 418.04C49.7959 416.681 15.8818 388.171 6.99214 348.372C-1.88896 308.611 14.1998 257.467 77.24 210.894C133.009 169.69 159.512 124.108 164.901 85.6775C170.023 49.1569 156.063 19.0766 130.025 5.52742C153.272 11.0273 175.277 22.3245 194.632 38.7312C217.681 65.7107 232.982 102.676 228.913 144.286C224.844 185.908 201.387 232.253 146.768 277.956C109.003 309.556 99.1949 343.494 105.402 368.216C111.327 391.814 131.842 406.912 156.243 403.334C134.203 413.928 110.645 418.939 87.0438 418.04Z" fill="#F8BA1D" stroke="#FFD057"/>
<path d="M190.574 46.9556C226.303 75.5773 212.601 158.6 119.269 210.586C13.2916 269.611 36.8599 371.032 89.4454 384.056C106.853 388.402 125.383 387.35 143.757 380.973C105.47 382.837 92.3445 318.061 156.868 276.752C250.556 216.771 256.538 136.619 233.4 85.2142C221.924 67.8152 207.3 54.7522 190.574 46.9556ZM190.574 46.9556C190.524 46.9154 190.473 46.8753 190.423 46.8353L190.189 46.7774C190.317 46.8365 190.446 46.8959 190.574 46.9556Z" fill="#FCC740"/>
<path d="M190.574 46.9556C226.303 75.5773 212.601 158.6 119.269 210.586C13.2916 269.611 36.8599 371.032 89.4454 384.056C106.853 388.402 125.383 387.35 143.757 380.973C105.47 382.837 92.3445 318.061 156.868 276.752C250.556 216.771 256.538 136.619 233.4 85.2142C221.924 67.8152 207.3 54.7522 190.574 46.9556ZM190.574 46.9556C190.524 46.9154 190.473 46.8753 190.423 46.8353L190.189 46.7774C190.317 46.8365 190.446 46.8959 190.574 46.9556Z" stroke="white"/>
<path d="M214.68 124.795C250.726 152.137 238.409 229.568 146.28 276.695C41.6697 330.202 72.914 391.476 125.5 404.5C142.908 408.843 163 404.5 172.5 383C134.395 384.13 121.185 376.784 184.791 339.183C277.146 284.584 281.82 209.714 257.95 161.265C246.241 144.807 231.465 132.355 214.68 124.795ZM214.68 124.795C214.629 124.757 214.579 124.718 214.528 124.68L214.294 124.622C214.423 124.68 214.552 124.737 214.68 124.795Z" fill="#FED468"/>
<path d="M214.68 124.795C250.726 152.137 238.409 229.568 146.28 276.695C41.6697 330.202 72.914 391.476 125.5 404.5C142.908 408.843 163 404.5 172.5 383C134.395 384.13 121.185 376.784 184.791 339.183C277.146 284.584 281.82 209.714 257.95 161.265C246.241 144.807 231.465 132.355 214.68 124.795ZM214.68 124.795C214.629 124.757 214.579 124.718 214.528 124.68L214.294 124.622C214.423 124.68 214.552 124.737 214.68 124.795Z" stroke="white"/>
<circle cx="147.5" cy="356.158" r="32.5" fill="white"/>
</svg>
